<?xml version="1.0" encoding="utf-8"?>
<!-- Generator: Adobe Illustrator 16.0.0, SVG Export Plug-In . SVG Version: 6.00 Build 0)  -->
<!DOCTYPE svg PUBLIC "-//W3C//DTD SVG 1.1//EN" "http://www.w3.org/Graphics/SVG/1.1/DTD/svg11.dtd">
<svg version="1.1" id="图层_1" xmlns="http://www.w3.org/2000/svg" xmlns:xlink="http://www.w3.org/1999/xlink" x="0px" y="0px"
	 width="60px" height="60px" viewBox="0 0 60 60" enable-background="new 0 0 60 60" xml:space="preserve">
<g>
	<path fill="#C2E1BD" d="M51.131,42.047c0.214-0.164,0.431-0.333,0.628-0.501c0.005-0.007,0.019-0.012,0.025-0.027
		c0.032-0.03,0.053-0.06,0.08-0.088c0.313-0.278,0.591-0.573,0.836-0.866c0.039-0.042,0.092-0.077,0.127-0.124
		c0.053-0.063,0.081-0.131,0.136-0.193c0.141-0.187,0.27-0.37,0.394-0.557c0.044-0.071,0.102-0.138,0.141-0.209
		c0.025-0.053,0.044-0.1,0.074-0.15c0.095-0.167,0.175-0.345,0.251-0.511c0.039-0.091,0.092-0.169,0.124-0.258
		c0.012-0.037,0.021-0.08,0.039-0.12c0.057-0.159,0.101-0.328,0.149-0.49c0.025-0.098,0.064-0.193,0.083-0.293
		c0.005-0.033,0.005-0.062,0.014-0.093c0.035-0.176,0.046-0.357,0.064-0.53c0.005-0.101,0.032-0.202,0.032-0.3
		c0-0.052,0-0.096,0-0.145l0.021-6.102c0,0.153-0.025,0.296-0.039,0.444c-0.015,0.175-0.035,0.357-0.065,0.53
		c-0.022,0.133-0.064,0.262-0.096,0.391c-0.047,0.164-0.093,0.328-0.152,0.49c-0.044,0.125-0.102,0.247-0.161,0.38
		c-0.078,0.173-0.155,0.342-0.247,0.511c-0.062,0.115-0.145,0.235-0.214,0.353c-0.124,0.187-0.253,0.38-0.394,0.566
		c-0.082,0.106-0.168,0.213-0.256,0.317c-0.253,0.295-0.526,0.588-0.837,0.867c-0.038,0.038-0.074,0.075-0.116,0.111
		c-0.192,0.178-0.414,0.34-0.635,0.506c-0.11,0.084-0.201,0.169-0.311,0.249c-0.344,0.244-0.705,0.479-1.092,0.712l-0.021,6.102
		c0.387-0.231,0.755-0.462,1.094-0.713c0.117-0.093,0.214-0.182,0.327-0.271v0.007L51.131,42.047z"/>
	<path fill="#38A940" d="M49.062,44.116l0.027-7.56l0.309-0.183c0.372-0.222,0.72-0.443,1.042-0.672
		c0.063-0.038,0.104-0.082,0.155-0.125l0.138-0.113c0.258-0.199,0.442-0.337,0.604-0.475l0.101-0.106
		c0.293-0.26,0.55-0.535,0.78-0.811c0.083-0.098,0.164-0.199,0.238-0.293c0.133-0.166,0.255-0.344,0.367-0.521
		c0.081-0.128,0.141-0.222,0.194-0.321c0.08-0.158,0.153-0.313,0.225-0.464c0.083-0.173,0.12-0.258,0.15-0.342
		c0.053-0.145,0.092-0.293,0.131-0.436c0.053-0.192,0.078-0.266,0.092-0.351c0.023-0.15,0.037-0.293,0.053-0.443l0.019-0.2
		c0.007-0.075,0.021-0.145,0.021-0.222v-0.005H55v0.005l-0.018,6.257c-0.01,0.089-0.017,0.168-0.027,0.248
		c-0.025,0.284-0.047,0.479-0.083,0.68c-0.035,0.187-0.061,0.266-0.083,0.349c-0.083,0.283-0.129,0.461-0.194,0.635l-0.041,0.124
		c-0.023,0.075-0.064,0.145-0.102,0.222c-0.114,0.258-0.207,0.444-0.311,0.631c-0.034,0.07-0.053,0.117-0.083,0.164
		c-0.034,0.053-0.07,0.11-0.114,0.166c-0.169,0.265-0.312,0.462-0.468,0.668c-0.069,0.106-0.102,0.155-0.143,0.204l-0.115,0.129
		c-0.285,0.329-0.575,0.635-0.907,0.941l-0.092,0.093c-0.198,0.178-0.403,0.329-0.597,0.479l-0.204,0.164
		c-0.074,0.054-0.144,0.116-0.219,0.169c-0.357,0.258-0.739,0.502-1.147,0.743l-0.982,0.562h-0.007L49.062,44.116z M50.383,37.253
		l-0.014,4.586c0.018-0.014,0.039-0.024,0.057-0.04c0.058-0.04,0.102-0.085,0.154-0.129l0.239-0.188
		c0.176-0.129,0.342-0.26,0.498-0.397l0.11-0.106c0.29-0.265,0.55-0.537,0.783-0.813l0.239-0.297
		c0.128-0.169,0.248-0.342,0.358-0.518l0.203-0.326c0.08-0.155,0.154-0.304,0.225-0.462l0.144-0.33
		c0.056-0.145,0.092-0.282,0.125-0.415l0.096-0.382c0.027-0.149,0.041-0.307,0.053-0.467l0.032-0.395l0.007-2.319
		c-0.064,0.089-0.124,0.173-0.188,0.255c-0.093,0.113-0.181,0.231-0.277,0.344c-0.267,0.313-0.566,0.626-0.894,0.926l-0.119,0.111
		c-0.185,0.162-0.387,0.319-0.587,0.475l-0.187,0.151c-0.074,0.053-0.143,0.115-0.219,0.173c-0.273,0.2-0.55,0.386-0.84,0.568l0,0
		V37.253z"/>
	<path fill="#C2E1BD" d="M54.319,42.402c-0.009,0.113-0.019,0.23-0.037,0.347c-0.019,0.093-0.044,0.177-0.074,0.274
		c-0.031,0.103-0.055,0.22-0.097,0.324c-0.031,0.089-0.078,0.171-0.114,0.258c-0.053,0.115-0.102,0.227-0.161,0.34
		c-0.047,0.079-0.097,0.161-0.15,0.244c-0.075,0.124-0.168,0.246-0.255,0.375c-0.061,0.075-0.12,0.146-0.185,0.22
		c-0.138,0.168-0.304,0.33-0.468,0.494c-0.057,0.056-0.117,0.111-0.182,0.165c-0.101,0.095-0.219,0.184-0.336,0.269
		c-0.101,0.079-0.197,0.162-0.309,0.237c-0.119,0.089-0.258,0.169-0.391,0.255c-0.143,0.089-0.276,0.183-0.429,0.262
		c-0.485,0.271-1.008,0.502-1.552,0.713c-0.145,0.056-0.29,0.106-0.428,0.155c-0.336,0.12-0.695,0.213-1.045,0.307
		c-0.369,0.098-0.736,0.195-1.119,0.266c-0.447,0.089-0.897,0.169-1.365,0.223c-0.11,0.018-0.215,0.033-0.322,0.044
		c-0.624,0.063-1.248,0.096-1.876,0.098c-0.102,0-0.203,0-0.304,0c-0.622-0.004-1.244-0.035-1.85-0.098
		c-0.092-0.014-0.19-0.022-0.278-0.031c-0.607-0.07-1.211-0.171-1.799-0.293c-0.101-0.026-0.207-0.053-0.317-0.075
		c-0.528-0.124-1.039-0.275-1.541-0.448c-0.093-0.035-0.191-0.058-0.283-0.096c-0.598-0.22-1.165-0.475-1.689-0.766L8.963,31.771
		c-2.195-1.224-3.289-2.83-3.279-4.435L5.662,33.44c-0.007,1.606,1.087,3.214,3.279,4.432l26.404,14.691
		c0.497,0.274,1.034,0.527,1.597,0.736c0.034,0.011,0.064,0.018,0.098,0.031c0.092,0.04,0.195,0.063,0.289,0.098
		c0.319,0.111,0.639,0.222,0.967,0.311c0.189,0.051,0.383,0.089,0.567,0.138c0.103,0.022,0.207,0.049,0.315,0.073
		c0.092,0.02,0.181,0.042,0.278,0.06c0.36,0.076,0.737,0.141,1.105,0.187c0.136,0.022,0.271,0.033,0.41,0.045
		c0.096,0.013,0.184,0.018,0.276,0.031c0.133,0.013,0.263,0.03,0.4,0.044c0.368,0.031,0.736,0.049,1.107,0.058
		c0.114,0,0.23,0,0.348,0c0.102,0,0.202,0,0.294,0c0.17,0,0.339,0.005,0.507,0c0.415-0.018,0.835-0.038,1.243-0.084
		c0.046-0.005,0.092-0.014,0.139-0.018c0.11-0.016,0.211-0.031,0.322-0.043c0.324-0.033,0.653-0.075,0.972-0.131
		c0.133-0.024,0.257-0.068,0.393-0.093c0.38-0.075,0.753-0.167,1.119-0.271c0.193-0.047,0.408-0.078,0.597-0.143
		c0.156-0.053,0.295-0.113,0.448-0.164c0.139-0.049,0.283-0.098,0.427-0.153c0.543-0.215,1.067-0.439,1.554-0.715
		c0.044-0.024,0.092-0.046,0.136-0.073c0.101-0.06,0.193-0.126,0.294-0.187c0.134-0.079,0.268-0.166,0.392-0.257
		c0.111-0.08,0.217-0.162,0.317-0.244c0.118-0.089,0.233-0.174,0.336-0.267c0.02-0.02,0.047-0.033,0.065-0.051
		c0.043-0.038,0.073-0.08,0.115-0.118c0.175-0.162,0.328-0.326,0.474-0.492c0.029-0.036,0.069-0.071,0.102-0.106
		c0.032-0.036,0.05-0.076,0.074-0.113c0.101-0.125,0.184-0.247,0.267-0.373c0.031-0.051,0.078-0.1,0.11-0.157
		c0.023-0.024,0.028-0.054,0.042-0.089c0.064-0.111,0.109-0.223,0.156-0.338c0.027-0.062,0.073-0.124,0.092-0.193
		c0.009-0.024,0.014-0.042,0.019-0.07c0.042-0.106,0.064-0.22,0.096-0.322c0.02-0.071,0.056-0.148,0.065-0.213
		c0.007-0.018,0.007-0.038,0.007-0.06c0.021-0.113,0.035-0.229,0.039-0.345c0.005-0.075,0.027-0.142,0.027-0.22
		c0-0.033,0-0.06,0-0.091l0.019-6.104c-0.005,0.106-0.025,0.213-0.041,0.319l0.005,0.007L54.319,42.402z"/>
	<path fill="#FFFFFF" d="M49.411,23.834c6.478,3.606,6.579,9.411,0.322,13.07l1.34,0.744c4.355,2.428,4.381,6.385,0.051,8.812
		c-4.33,2.423-11.429,2.428-15.782,0L8.939,31.767c-4.354-2.426-4.382-6.388-0.052-8.814c4.33-2.427,11.429-2.427,15.782,0
		l1.34,0.744c6.536-3.5,16.928-3.461,23.397,0.136L49.411,23.834z"/>
	<path fill="#38A940" d="M55,42.074c0-1.904-1.28-3.667-3.604-4.959l-0.429-0.239c2.634-1.793,4.052-4.066,4.024-6.468
		c-0.035-2.715-1.899-5.233-5.261-7.103c-6.574-3.665-16.91-3.782-23.708-0.308l-1.03-0.573c-4.542-2.527-11.915-2.535-16.428,0
		c-2.292,1.284-3.553,3.03-3.553,4.925c0,0.071,0,0.139,0.007,0.211L5,33.434c-0.007,1.915,1.275,3.682,3.604,4.979l26.4,14.692
		c0.521,0.293,1.089,0.558,1.78,0.808c0.063,0.027,0.13,0.052,0.2,0.071l0.155,0.051c0.312,0.106,0.622,0.22,0.95,0.307
		c0.138,0.038,0.273,0.068,0.408,0.098l0.801,0.187c0.374,0.075,0.761,0.145,1.152,0.193l1.126,0.124
		c0.375,0.026,0.757,0.051,1.14,0.058l0.854-0.007c0.118,0.007,0.228,0.007,0.344,0c0.43-0.016,0.86-0.033,1.286-0.08l0.601-0.079
		c0.293-0.034,0.585-0.069,0.875-0.12c0.097-0.018,0.18-0.038,0.271-0.061l0.103-0.037c0.4-0.082,0.781-0.176,1.169-0.28
		l0.226-0.051c0.136-0.033,0.271-0.062,0.402-0.098c0.104-0.033,0.205-0.071,0.304-0.106l0.164-0.063
		c0.152-0.049,0.304-0.106,0.451-0.161c0.66-0.256,1.184-0.491,1.635-0.748l0.142-0.08c0.077-0.042,0.142-0.094,0.213-0.136
		l0.202-0.131c0.11-0.071,0.219-0.136,0.313-0.206c0.098-0.069,0.181-0.138,0.272-0.207l0.149-0.117
		c0.1-0.073,0.195-0.155,0.356-0.284c0.037-0.038,0.079-0.075,0.12-0.127c0.195-0.173,0.368-0.354,0.538-0.546l0.102-0.106
		c0.028-0.033,0.056-0.07,0.093-0.126c0.11-0.138,0.211-0.273,0.317-0.451c0.039-0.051,0.073-0.093,0.149-0.241
		c0.071-0.127,0.132-0.258,0.214-0.429c0.027-0.058,0.061-0.113,0.102-0.249c0.056-0.119,0.078-0.237,0.139-0.437
		c0.025-0.069,0.043-0.14,0.064-0.269c0.022-0.127,0.039-0.249,0.06-0.448c0.011-0.069,0.019-0.138,0.021-0.32l0.021-5.881
		c0.01-0.076,0.01-0.155,0.01-0.231L55,42.083V42.074z M9.22,23.498c2.077-1.167,4.814-1.746,7.553-1.746
		c2.738,0,5.48,0.579,7.576,1.738l1.658,0.921l0.325-0.171c6.322-3.388,16.535-3.334,22.757,0.129
		c2.951,1.642,4.586,3.783,4.613,6.038c0.027,2.206-1.499,4.321-4.3,5.959l-0.933,0.549l2.286,1.273
		c1.901,1.062,2.955,2.438,2.955,3.88c0,0.005,0,0.014,0,0.022h-0.005v0.004c0,0.049-0.004,0.096-0.014,0.143l-0.016,0.146
		c-0.002,0.08-0.011,0.169-0.021,0.248c-0.019,0.056-0.028,0.111-0.073,0.265c-0.025,0.077-0.047,0.157-0.074,0.229l-0.097,0.227
		c-0.039,0.093-0.083,0.192-0.137,0.284l-0.131,0.206c-0.07,0.113-0.147,0.22-0.23,0.331l-0.165,0.195
		c-0.129,0.15-0.27,0.297-0.424,0.443l-0.17,0.153c-0.071,0.071-0.154,0.131-0.237,0.193l-0.154,0.119
		c-0.064,0.056-0.131,0.107-0.202,0.156c-0.093,0.062-0.185,0.124-0.366,0.234l-0.122,0.085c-0.023,0.018-0.054,0.031-0.078,0.049
		c-0.064,0.035-0.129,0.075-0.193,0.113c-0.168,0.093-0.341,0.187-0.524,0.275c-0.277,0.131-0.586,0.259-0.944,0.399
		c-0.134,0.051-0.271,0.098-0.41,0.15c-0.295,0.104-0.604,0.187-0.994,0.291c-0.351,0.096-0.704,0.185-1.073,0.258
		c-0.433,0.088-0.867,0.164-1.314,0.222l-0.315,0.04c-0.569,0.062-1.179,0.098-1.888,0.098h-0.221c-0.599,0-1.202-0.031-1.791-0.094
		l-0.272-0.031c-0.584-0.07-1.169-0.159-1.733-0.283l-0.297-0.071c-0.487-0.118-0.989-0.262-1.473-0.429l-0.231-0.075
		c-0.578-0.211-1.127-0.462-1.638-0.748L9.281,31.226c-1.888-1.055-2.944-2.419-2.956-3.858c0-0.011,0-0.018,0-0.031
		c-0.006-1.42,1.028-2.789,2.907-3.84l-0.007,0.002H9.22z M53.686,48.173l-0.005,0.138l-0.02,0.155
		c-0.003,0.089-0.012,0.167-0.051,0.359l-0.047,0.151c-0.022,0.08-0.046,0.162-0.119,0.354l-0.058,0.111
		c-0.043,0.098-0.081,0.195-0.168,0.355l-0.102,0.146c-0.073,0.113-0.147,0.224-0.285,0.415l-0.102,0.104
		c-0.131,0.15-0.271,0.299-0.436,0.45l-0.153,0.148c-0.074,0.063-0.15,0.12-0.229,0.187l-0.154,0.124
		c-0.073,0.052-0.136,0.106-0.221,0.165c-0.078,0.053-0.171,0.11-0.363,0.229l-0.272,0.171l-0.119,0.075
		c-0.4,0.222-0.868,0.431-1.469,0.666c-0.139,0.051-0.272,0.102-0.409,0.15l-0.199,0.076c-0.073,0.03-0.14,0.053-0.221,0.079
		c-0.092,0.031-0.188,0.052-0.276,0.071c-0.101,0.018-0.197,0.042-0.295,0.069c-0.354,0.093-0.713,0.18-1.072,0.257
		c-0.078,0.012-0.154,0.033-0.235,0.056c-0.046,0.014-0.096,0.033-0.147,0.04c-0.267,0.049-0.531,0.08-0.806,0.111l-0.575,0.075
		c-0.405,0.04-0.801,0.071-1.201,0.08l-1.115,0.006c-0.354-0.015-0.718-0.033-1.067-0.058l-1.055-0.113
		c-0.363-0.049-0.718-0.104-1.189-0.204l-0.653-0.157c-0.115-0.024-0.233-0.051-0.342-0.082c-0.297-0.08-0.585-0.178-0.927-0.298
		l-0.36-0.117c-0.539-0.206-1.043-0.444-1.509-0.699L9.258,37.333c-1.907-1.063-2.964-2.445-2.957-3.893l0.006-2.935
		c0.589,0.666,1.364,1.278,2.317,1.807l26.402,14.693c2.271,1.267,5.246,1.896,8.225,1.896c2.978,0,5.944-0.633,8.205-1.896
		c0.919-0.521,1.672-1.105,2.247-1.754l-0.005,2.919H53.69L53.686,48.173z"/>
	<path fill="#C2E1BD" d="M18.922,14.08l-0.133,17.417l13.863,7.155l0.026-4.219l0.106-13.203l-5.281-2.724L18.922,14.08z"/>
	<path fill="#FFFFFF" d="M46.736,13.211L32.928,6.086L19.465,13.28l13.809,7.126l6.646-3.552L46.736,13.211z"/>
	<path fill="#C2E1BD" d="M33.637,38.636l13.5-7.215l0.131-17.405l-13.496,7.216l-0.106,12.79L33.637,38.636z"/>
	<path fill="#38A940" d="M37.185,27.22c0.218-0.28,0.528-0.409,0.69-0.291c0.164,0.119,0.121,0.441-0.099,0.72
		c-0.217,0.28-0.527,0.411-0.69,0.291C36.923,27.823,36.966,27.5,37.185,27.22z"/>
	<path fill="#38A940" d="M35.209,28.327c0.22-0.28,0.528-0.411,0.691-0.293c0.162,0.12,0.12,0.441-0.1,0.721
		c-0.219,0.279-0.528,0.408-0.69,0.291C34.948,28.926,34.99,28.604,35.209,28.327z"/>
	<path fill="#38A940" d="M39.452,26.743l5.931-3.299c0.271-0.155,0.492-0.492,0.492-0.755l0,0c0-0.262-0.222-0.351-0.492-0.199
		l-5.931,3.298c-0.271,0.154-0.493,0.488-0.493,0.752l0,0C38.959,26.804,39.182,26.895,39.452,26.743L39.452,26.743z"/>
	<path fill="#38A940" d="M37.182,33.896c0.219-0.28,0.526-0.411,0.688-0.293c0.164,0.117,0.121,0.441-0.099,0.721
		c-0.216,0.28-0.524,0.411-0.688,0.293C36.921,34.497,36.964,34.175,37.182,33.896z"/>
	<path fill="#38A940" d="M35.209,34.989c0.22-0.277,0.528-0.408,0.693-0.293c0.165,0.12,0.121,0.444-0.099,0.724
		s-0.528,0.413-0.693,0.293C34.945,35.596,34.99,35.269,35.209,34.989z"/>
	<path fill="#38A940" d="M39.452,33.411l5.931-3.303c0.271-0.152,0.492-0.49,0.492-0.752l0,0c0-0.262-0.222-0.351-0.492-0.197
		l-5.931,3.302c-0.271,0.153-0.493,0.486-0.493,0.751l0,0c0,0.26,0.223,0.353,0.493,0.201V33.411z"/>
	<path fill="#38A940" d="M36.414,12.166c0.005-0.057,0.045-0.1,0.108-0.139c0.09-0.052,0.229-0.07,0.37-0.057l2.249,0.266
		c0.009,0,0.014,0.007,0.023,0.007c0.03,0.004,0.06,0.013,0.089,0.018c0.026,0.012,0.056,0.017,0.074,0.026
		c0.025,0.009,0.045,0.02,0.067,0.034c0.021,0.013,0.045,0.022,0.061,0.036c0.015,0.014,0.028,0.028,0.037,0.041
		c0.019,0.017,0.032,0.034,0.041,0.048c0,0.004,0.013,0.012,0.013,0.014l0.479,1.254c0.053,0.137-0.1,0.256-0.348,0.267
		c-0.241,0.011-0.482-0.096-0.539-0.232l-0.288-0.752l-2.064,1.152c-0.113,0.061-0.285,0.078-0.455,0.043l-2.056-0.458l0.814,1.146
		c0.063,0.088,0.034,0.188-0.074,0.252l-2.065,1.152l1.35,0.16c0.248,0.029,0.435,0.161,0.42,0.3
		c-0.015,0.134-0.232,0.221-0.479,0.193l-2.248-0.271c-0.011,0-0.018-0.004-0.026-0.004c-0.029-0.004-0.06-0.013-0.088-0.018
		c-0.025-0.011-0.054-0.015-0.072-0.025c-0.027-0.009-0.045-0.024-0.069-0.031c-0.021-0.017-0.045-0.026-0.059-0.039
		s-0.03-0.03-0.041-0.043c-0.016-0.011-0.029-0.032-0.039-0.047c0-0.007-0.01-0.009-0.01-0.016l-0.478-1.253
		c-0.031-0.082,0.009-0.157,0.099-0.211c0.059-0.032,0.148-0.057,0.247-0.062c0.241-0.007,0.483,0.095,0.538,0.234l0.284,0.752
		l1.885-1.047l-0.97-1.357l-2.44-0.536l-1.883,1.047l1.348,0.162c0.249,0.029,0.434,0.161,0.42,0.297
		c-0.021,0.134-0.234,0.221-0.479,0.193l-2.246-0.266c-0.01,0-0.015-0.004-0.027-0.004c-0.031-0.007-0.059-0.016-0.089-0.022
		c-0.025-0.009-0.054-0.011-0.073-0.021c-0.026-0.011-0.045-0.024-0.071-0.033c-0.018-0.015-0.045-0.025-0.063-0.039
		c-0.016-0.011-0.028-0.027-0.04-0.041c-0.014-0.013-0.03-0.032-0.041-0.052c0-0.002-0.011-0.009-0.011-0.016l-0.479-1.253
		c-0.03-0.08,0.011-0.157,0.099-0.211c0.06-0.032,0.148-0.054,0.248-0.062c0.24-0.009,0.483,0.093,0.538,0.234l0.285,0.752
		l2.067-1.152c0.114-0.061,0.285-0.078,0.455-0.043l2.056,0.452l-0.814-1.143c-0.065-0.089-0.036-0.189,0.072-0.252l2.065-1.152
		l-1.349-0.162c-0.247-0.029-0.434-0.161-0.423-0.3c0.005-0.057,0.045-0.1,0.108-0.139c0.09-0.054,0.229-0.073,0.371-0.057
		l2.247,0.265c0.012,0,0.014,0.008,0.025,0.008c0.03,0.002,0.059,0.011,0.089,0.018c0.024,0.009,0.055,0.015,0.074,0.025
		c0.025,0.009,0.044,0.024,0.067,0.031c0.021,0.016,0.045,0.028,0.059,0.039c0.015,0.016,0.032,0.03,0.041,0.043
		c0.017,0.015,0.031,0.032,0.04,0.047c0,0.004,0.01,0.009,0.01,0.016l0.479,1.253c0.055,0.139-0.104,0.256-0.347,0.268
		c-0.242,0.008-0.483-0.096-0.54-0.234l-0.288-0.752l-1.882,1.047l0.97,1.356l2.44,0.537l1.883-1.049l-1.346-0.159
		c-0.249-0.004-0.438-0.139-0.418-0.275L36.414,12.166z"/>
	<path fill="#38A940" d="M47.763,12.664L32.915,5l-14.979,8.007l-0.002,0.563l-0.138,18.498l15.347,7.919l0.488-0.262l14.49-7.741
		l0.14-18.494l0.005-0.566l-0.502-0.259L47.763,12.664z M47.268,14.016l-0.034,4.643l-0.497,0.269l-13.005,6.948l0.04-4.647
		L47.268,14.016z M33.637,38.636l0.026-4.614l0.002-0.349l0.104-0.058l13.402-7.163l-0.035,4.966l-13.503,7.216L33.637,38.636z
		 M32.651,38.656l-13.863-7.158l0.133-17.416l13.862,7.152l-0.109,13.202l-0.025,4.22H32.651z M19.465,13.28l1.324-0.707
		l13.75,7.164l-1.258,0.67L19.465,13.28z M46.736,13.211l-1.161,0.62L31.828,6.666L32.92,6.08l13.812,7.131H46.736z M33.771,26.4
		l-0.005,0.548l13.458-7.193l-0.044,5.602l-0.449,0.239l-13.059,6.977l0.049-6.218l0.045,0.025l0.007,0.022L33.771,26.4z
		 M30.907,7.166l13.75,7.164l-9.188,4.909L21.715,12.08L30.907,7.166z"/>
	<path fill="#38A940" d="M37.185,21.507c0.218-0.28,0.526-0.41,0.69-0.292c0.166,0.119,0.121,0.442-0.097,0.721
		c-0.217,0.28-0.524,0.409-0.69,0.291C36.923,22.109,36.968,21.786,37.185,21.507z"/>
	<path fill="#38A940" d="M35.209,22.609c0.22-0.28,0.528-0.412,0.693-0.293c0.165,0.118,0.121,0.44-0.099,0.722
		c-0.22,0.28-0.528,0.412-0.693,0.293C34.945,23.214,34.99,22.891,35.209,22.609z"/>
	<path fill="#38A940" d="M39.452,21.03l5.931-3.303c0.271-0.152,0.492-0.492,0.492-0.755l0,0c0-0.262-0.222-0.349-0.492-0.197
		l-5.931,3.299c-0.271,0.155-0.493,0.492-0.493,0.752l0,0C38.959,21.089,39.182,21.182,39.452,21.03z"/>
</g>
</svg>
