<?xml version="1.0" encoding="utf-8"?>
<!-- Generator: Adobe Illustrator 16.0.0, SVG Export Plug-In . SVG Version: 6.00 Build 0)  -->
<!DOCTYPE svg PUBLIC "-//W3C//DTD SVG 1.1//EN" "http://www.w3.org/Graphics/SVG/1.1/DTD/svg11.dtd">
<svg version="1.1" id="图层_1" xmlns="http://www.w3.org/2000/svg" xmlns:xlink="http://www.w3.org/1999/xlink" x="0px" y="0px"
	 width="60px" height="60px" viewBox="0 0 60 60" enable-background="new 0 0 60 60" xml:space="preserve">
<g>
	<path fill="#C2E1BD" d="M51.127,42.045c0.215-0.162,0.436-0.33,0.627-0.498c0.01-0.008,0.021-0.014,0.027-0.025
		c0.033-0.03,0.055-0.059,0.082-0.09c0.313-0.277,0.59-0.572,0.832-0.863c0.041-0.039,0.097-0.08,0.128-0.123
		c0.051-0.065,0.083-0.137,0.133-0.194c0.146-0.188,0.271-0.375,0.394-0.563c0.047-0.064,0.102-0.138,0.146-0.201
		c0.021-0.055,0.041-0.103,0.068-0.154c0.096-0.168,0.179-0.34,0.252-0.508c0.041-0.094,0.091-0.168,0.123-0.26
		c0.014-0.041,0.021-0.08,0.041-0.115c0.06-0.164,0.104-0.33,0.146-0.498c0.026-0.098,0.067-0.189,0.087-0.291
		c0.005-0.031,0.005-0.063,0.014-0.094c0.032-0.176,0.047-0.355,0.064-0.527c0.004-0.102,0.031-0.209,0.031-0.305
		c0-0.049,0-0.099,0-0.142l0.019-6.105c0,0.151-0.022,0.292-0.036,0.446c-0.014,0.174-0.031,0.354-0.063,0.53
		c-0.022,0.134-0.064,0.261-0.097,0.39c-0.045,0.166-0.092,0.33-0.15,0.487c-0.046,0.13-0.102,0.252-0.16,0.38
		c-0.082,0.178-0.154,0.344-0.247,0.518c-0.063,0.113-0.142,0.232-0.215,0.352c-0.123,0.186-0.251,0.379-0.394,0.564
		c-0.082,0.111-0.164,0.211-0.256,0.318c-0.252,0.295-0.523,0.59-0.834,0.866c-0.039,0.041-0.074,0.076-0.117,0.111
		c-0.191,0.176-0.412,0.34-0.633,0.506c-0.111,0.084-0.199,0.168-0.313,0.252c-0.346,0.242-0.704,0.479-1.094,0.711l-0.021,6.099
		c0.39-0.226,0.755-0.459,1.097-0.705c0.115-0.099,0.211-0.187,0.323-0.273v0.008h-0.005V42.045z"/>
	<path fill="#38A940" d="M49.057,44.117l0.024-7.557l0.313-0.187c0.367-0.222,0.719-0.44,1.041-0.67
		c0.062-0.041,0.103-0.084,0.152-0.129l0.139-0.109c0.26-0.202,0.441-0.34,0.603-0.477l0.104-0.105
		c0.291-0.26,0.551-0.538,0.778-0.813c0.082-0.096,0.16-0.196,0.237-0.291c0.133-0.165,0.257-0.344,0.365-0.52
		c0.082-0.133,0.143-0.225,0.192-0.322c0.082-0.158,0.155-0.313,0.229-0.463c0.076-0.176,0.119-0.256,0.146-0.348
		c0.056-0.141,0.097-0.291,0.132-0.432c0.057-0.195,0.078-0.271,0.092-0.354c0.027-0.153,0.037-0.293,0.056-0.44l0.019-0.203
		c0.01-0.07,0.02-0.141,0.02-0.221l0,0h1.294l0,0l-0.019,6.258c-0.004,0.088-0.015,0.168-0.027,0.246
		c-0.027,0.287-0.047,0.481-0.082,0.684c-0.037,0.186-0.061,0.266-0.082,0.344c-0.088,0.287-0.133,0.469-0.197,0.641l-0.041,0.127
		c-0.021,0.076-0.061,0.144-0.102,0.218c-0.113,0.256-0.209,0.444-0.311,0.631c-0.031,0.069-0.051,0.119-0.083,0.168
		c-0.03,0.054-0.073,0.108-0.114,0.166c-0.168,0.263-0.311,0.463-0.465,0.67c-0.07,0.106-0.102,0.149-0.144,0.203l-0.114,0.125
		c-0.288,0.334-0.576,0.64-0.908,0.942l-0.093,0.093c-0.198,0.186-0.399,0.336-0.595,0.479l-0.206,0.168
		c-0.072,0.057-0.142,0.115-0.22,0.168c-0.354,0.26-0.738,0.502-1.146,0.744l-0.983,0.561h-0.004L49.057,44.117z M50.377,37.256
		l-0.014,4.586c0.019-0.012,0.041-0.025,0.06-0.043c0.056-0.035,0.101-0.08,0.155-0.123l0.24-0.191
		c0.176-0.127,0.341-0.26,0.496-0.396l0.109-0.108c0.29-0.26,0.551-0.533,0.781-0.808l0.238-0.297
		c0.127-0.172,0.25-0.344,0.365-0.522l0.196-0.322c0.082-0.154,0.155-0.305,0.229-0.463l0.142-0.33
		c0.056-0.146,0.092-0.283,0.123-0.416l0.097-0.379c0.027-0.154,0.041-0.305,0.051-0.467l0.037-0.396l0.004-2.32
		c-0.063,0.088-0.123,0.178-0.188,0.256c-0.091,0.111-0.183,0.23-0.278,0.34c-0.266,0.318-0.563,0.627-0.892,0.927l-0.119,0.11
		c-0.183,0.162-0.384,0.32-0.588,0.471l-0.185,0.154c-0.074,0.053-0.146,0.115-0.221,0.172C50.949,36.891,50.67,37.08,50.377,37.256
		L50.377,37.256L50.377,37.256z"/>
	<path fill="#C2E1BD" d="M54.314,42.402c-0.015,0.115-0.02,0.229-0.037,0.344c-0.022,0.098-0.045,0.186-0.072,0.273
		c-0.032,0.104-0.061,0.221-0.098,0.33c-0.031,0.09-0.076,0.168-0.113,0.256c-0.055,0.119-0.102,0.229-0.164,0.34
		c-0.042,0.084-0.098,0.168-0.146,0.248c-0.078,0.123-0.17,0.242-0.256,0.369c-0.06,0.076-0.119,0.146-0.184,0.221
		c-0.143,0.168-0.303,0.33-0.471,0.49c-0.061,0.057-0.119,0.113-0.184,0.168c-0.102,0.096-0.22,0.184-0.334,0.268
		c-0.105,0.084-0.201,0.164-0.313,0.234c-0.123,0.092-0.258,0.172-0.393,0.26c-0.143,0.088-0.273,0.182-0.428,0.266
		c-0.484,0.268-1.01,0.498-1.553,0.709c-0.143,0.057-0.288,0.105-0.426,0.154c-0.338,0.119-0.694,0.211-1.043,0.309
		c-0.365,0.099-0.735,0.189-1.119,0.271c-0.447,0.084-0.897,0.168-1.364,0.215c-0.109,0.019-0.216,0.035-0.324,0.045
		c-0.624,0.065-1.249,0.099-1.88,0.103c-0.102,0-0.198,0-0.305,0c-0.619-0.004-1.241-0.035-1.848-0.103
		c-0.094-0.01-0.188-0.019-0.279-0.026c-0.606-0.07-1.207-0.172-1.799-0.295c-0.101-0.025-0.205-0.054-0.314-0.074
		c-0.531-0.129-1.043-0.277-1.541-0.449c-0.098-0.031-0.191-0.059-0.281-0.094c-0.597-0.226-1.164-0.472-1.689-0.771L8.961,31.771
		c-2.194-1.228-3.288-2.837-3.28-4.439L5.66,33.434c-0.007,1.609,1.086,3.219,3.28,4.433l26.401,14.696
		c0.498,0.277,1.033,0.523,1.597,0.73c0.033,0.018,0.063,0.023,0.096,0.031c0.092,0.039,0.197,0.063,0.293,0.098
		c0.316,0.109,0.636,0.225,0.965,0.309c0.191,0.054,0.384,0.093,0.57,0.142c0.102,0.021,0.207,0.049,0.315,0.073
		c0.093,0.019,0.185,0.041,0.279,0.06c0.36,0.078,0.735,0.142,1.104,0.188c0.135,0.021,0.271,0.031,0.408,0.043
		c0.096,0.011,0.188,0.019,0.276,0.031c0.135,0.01,0.264,0.027,0.399,0.041c0.367,0.029,0.736,0.047,1.106,0.058
		c0.114,0,0.233,0,0.351,0c0.101,0,0.198,0,0.295,0c0.17,0,0.338,0.004,0.506,0c0.414-0.019,0.834-0.035,1.24-0.08
		c0.045-0.009,0.092-0.019,0.135-0.019c0.113-0.018,0.214-0.031,0.328-0.043c0.324-0.035,0.65-0.076,0.97-0.133
		c0.135-0.027,0.261-0.066,0.397-0.098c0.381-0.074,0.75-0.162,1.121-0.268c0.194-0.05,0.404-0.076,0.594-0.144
		c0.155-0.054,0.295-0.113,0.449-0.162c0.139-0.049,0.283-0.103,0.426-0.153c0.543-0.218,1.066-0.438,1.551-0.716
		c0.045-0.021,0.093-0.049,0.137-0.073c0.102-0.06,0.195-0.125,0.292-0.187c0.133-0.08,0.271-0.168,0.394-0.256
		c0.109-0.08,0.211-0.158,0.315-0.242c0.114-0.088,0.229-0.178,0.334-0.271c0.022-0.018,0.046-0.03,0.063-0.053
		c0.045-0.035,0.072-0.08,0.115-0.115c0.178-0.168,0.332-0.326,0.475-0.494c0.027-0.034,0.068-0.069,0.102-0.108
		c0.031-0.035,0.055-0.073,0.077-0.11c0.097-0.123,0.183-0.246,0.267-0.369c0.031-0.049,0.076-0.103,0.108-0.158
		c0.022-0.027,0.026-0.055,0.041-0.084c0.063-0.119,0.11-0.225,0.16-0.34c0.022-0.063,0.067-0.129,0.092-0.193
		c0.009-0.027,0.015-0.041,0.019-0.072c0.041-0.105,0.068-0.215,0.097-0.32c0.019-0.065,0.055-0.146,0.063-0.213
		c0.01-0.018,0.01-0.039,0.01-0.061c0.019-0.115,0.031-0.227,0.035-0.344c0.006-0.076,0.027-0.144,0.027-0.221
		c0-0.027,0-0.06,0-0.095l0.02-6.103c-0.006,0.109-0.027,0.212-0.041,0.316l0.009,0.014h-0.009V42.402z"/>
	<path fill="#38A940" d="M37.177,27.224c0.218-0.279,0.528-0.411,0.69-0.291c0.164,0.119,0.121,0.44-0.1,0.721
		c-0.217,0.279-0.524,0.411-0.689,0.291C36.913,27.825,36.959,27.504,37.177,27.224z"/>
	<path fill="#38A940" d="M35.198,28.325c0.218-0.28,0.53-0.41,0.692-0.293c0.162,0.118,0.119,0.443-0.099,0.723
		c-0.22,0.28-0.53,0.409-0.692,0.294C34.936,28.931,34.979,28.605,35.198,28.325z"/>
	<path fill="#38A940" d="M39.447,26.743l5.929-3.298c0.271-0.154,0.493-0.49,0.493-0.758l0,0c0-0.261-0.223-0.349-0.493-0.195
		l-5.929,3.298c-0.271,0.156-0.494,0.49-0.494,0.752l0,0C38.953,26.804,39.173,26.896,39.447,26.743z"/>
	<path fill="#38A940" d="M37.177,33.893c0.218-0.283,0.528-0.414,0.69-0.295c0.164,0.119,0.121,0.439-0.098,0.723
		c-0.217,0.277-0.524,0.41-0.689,0.291C36.918,34.492,36.962,34.17,37.177,33.893z"/>
	<path fill="#38A940" d="M35.198,34.994c0.218-0.281,0.526-0.414,0.69-0.291c0.164,0.119,0.118,0.441-0.099,0.719
		c-0.218,0.283-0.528,0.414-0.69,0.297C34.936,35.594,34.979,35.273,35.198,34.994z"/>
	<path fill="#38A940" d="M39.447,33.412l5.929-3.3c0.271-0.152,0.493-0.489,0.493-0.754l0,0c0-0.261-0.223-0.351-0.493-0.198
		l-5.929,3.299c-0.271,0.154-0.494,0.49-0.494,0.754l0,0C38.953,33.473,39.173,33.566,39.447,33.412z"/>
	<path fill="#FFFFFF" d="M49.402,23.836c6.476,3.605,6.58,9.408,0.328,13.068l1.336,0.744c4.354,2.426,4.382,6.385,0.054,8.813
		c-4.328,2.427-11.427,2.427-15.779,0L8.939,31.771c-4.353-2.428-4.38-6.389-0.054-8.816c4.327-2.43,11.429-2.427,15.782,0
		l1.338,0.74c6.536-3.496,16.927-3.459,23.397,0.138V23.836L49.402,23.836z"/>
	<path fill="#38A940" d="M54.996,42.076c0-1.904-1.28-3.668-3.604-4.961l-0.431-0.238c2.634-1.795,4.052-4.064,4.022-6.47
		c-0.03-2.714-1.896-5.233-5.258-7.104c-6.572-3.664-16.906-3.782-23.708-0.305l-1.03-0.576c-4.542-2.526-11.911-2.53-16.426,0
		c-2.29,1.287-3.552,3.034-3.552,4.929c0,0.067,0,0.135,0.007,0.212L5,33.434c-0.006,1.914,1.276,3.683,3.603,4.979l26.399,14.694
		c0.52,0.291,1.089,0.558,1.779,0.81c0.063,0.024,0.132,0.047,0.197,0.069l0.158,0.05c0.312,0.108,0.619,0.219,0.951,0.303
		c0.137,0.041,0.273,0.07,0.407,0.103l0.805,0.186c0.375,0.074,0.759,0.146,1.152,0.193l1.125,0.125
		c0.377,0.025,0.757,0.053,1.141,0.057l0.853-0.004c0.117,0.004,0.229,0.004,0.347,0c0.433-0.018,0.858-0.035,1.287-0.08
		l0.604-0.084c0.293-0.031,0.58-0.07,0.873-0.119c0.096-0.018,0.18-0.035,0.271-0.061l0.105-0.035
		c0.396-0.08,0.78-0.178,1.166-0.283l0.224-0.049c0.138-0.031,0.27-0.061,0.401-0.102c0.105-0.029,0.207-0.066,0.305-0.105
		l0.162-0.066c0.15-0.043,0.303-0.104,0.451-0.158c0.66-0.256,1.183-0.489,1.635-0.75l0.142-0.078
		c0.076-0.041,0.142-0.094,0.215-0.133l0.197-0.137c0.108-0.07,0.219-0.133,0.315-0.203c0.101-0.07,0.183-0.141,0.273-0.207
		l0.146-0.119c0.101-0.069,0.195-0.153,0.36-0.283c0.036-0.038,0.077-0.073,0.118-0.127c0.197-0.172,0.371-0.354,0.54-0.547
		l0.104-0.104c0.022-0.035,0.051-0.069,0.092-0.129c0.109-0.138,0.205-0.272,0.314-0.449c0.037-0.049,0.073-0.092,0.151-0.241
		c0.067-0.123,0.128-0.257,0.21-0.429c0.027-0.058,0.061-0.114,0.102-0.252c0.055-0.112,0.077-0.237,0.137-0.437
		c0.022-0.069,0.047-0.137,0.063-0.27c0.023-0.123,0.037-0.252,0.06-0.449c0.015-0.066,0.02-0.137,0.023-0.318l0.021-5.881
		c0.006-0.076,0.006-0.153,0.006-0.229L55,42.076H54.996z M9.216,23.501c2.077-1.167,4.814-1.744,7.551-1.744
		c2.737,0,5.479,0.579,7.574,1.74l1.656,0.918l0.326-0.168c6.325-3.389,16.53-3.335,22.755,0.127
		c2.954,1.642,4.587,3.787,4.613,6.04c0.027,2.209-1.496,4.32-4.303,5.961l-0.929,0.547l2.282,1.273
		c1.902,1.059,2.958,2.434,2.958,3.881c0,0,0,0.01,0,0.018h-0.005v0.004c0,0.053-0.01,0.098-0.014,0.146l-0.019,0.145
		c0,0.08-0.009,0.168-0.022,0.248c-0.014,0.057-0.022,0.113-0.072,0.268c-0.023,0.076-0.041,0.16-0.069,0.23l-0.101,0.229
		c-0.037,0.094-0.082,0.188-0.138,0.282l-0.128,0.207c-0.072,0.109-0.15,0.215-0.232,0.33l-0.16,0.193
		c-0.129,0.15-0.274,0.301-0.426,0.441l-0.164,0.158c-0.071,0.065-0.155,0.129-0.237,0.19l-0.156,0.119
		c-0.063,0.057-0.128,0.104-0.2,0.153c-0.092,0.062-0.184,0.127-0.365,0.236l-0.125,0.08c-0.026,0.018-0.055,0.035-0.082,0.053
		c-0.062,0.031-0.127,0.076-0.191,0.111c-0.169,0.092-0.346,0.184-0.521,0.277c-0.277,0.127-0.59,0.26-0.945,0.396
		c-0.133,0.054-0.271,0.099-0.407,0.15c-0.297,0.104-0.606,0.188-0.999,0.295c-0.35,0.092-0.704,0.183-1.074,0.256
		c-0.434,0.088-0.867,0.164-1.314,0.218l-0.316,0.038c-0.566,0.063-1.175,0.099-1.886,0.103h-0.22c-0.603,0-1.2-0.031-1.791-0.094
		l-0.271-0.029c-0.587-0.07-1.171-0.168-1.734-0.287l-0.297-0.07c-0.49-0.119-0.99-0.26-1.476-0.428l-0.231-0.076
		c-0.576-0.211-1.127-0.467-1.637-0.748L9.27,31.229c-1.89-1.055-2.945-2.418-2.958-3.859c0-0.011,0-0.018,0-0.031
		c-0.007-1.42,1.029-2.788,2.906-3.842l-0.005,0.006L9.216,23.501L9.216,23.501z M53.68,48.174l-0.006,0.137l-0.021,0.154
		c0,0.088-0.01,0.168-0.051,0.361l-0.045,0.15c-0.02,0.08-0.043,0.164-0.115,0.354l-0.06,0.109c-0.046,0.102-0.083,0.199-0.17,0.356
		l-0.101,0.146c-0.073,0.109-0.15,0.226-0.283,0.414l-0.105,0.105c-0.132,0.15-0.27,0.299-0.434,0.449l-0.156,0.15
		c-0.072,0.063-0.148,0.119-0.226,0.186l-0.158,0.123c-0.073,0.049-0.133,0.109-0.215,0.168c-0.082,0.053-0.175,0.109-0.366,0.229
		l-0.273,0.168l-0.119,0.08c-0.402,0.219-0.868,0.428-1.469,0.666c-0.137,0.047-0.273,0.096-0.406,0.148l-0.203,0.076
		c-0.07,0.029-0.141,0.057-0.219,0.078c-0.092,0.035-0.188,0.053-0.277,0.069c-0.104,0.019-0.201,0.046-0.295,0.072
		c-0.358,0.092-0.713,0.176-1.074,0.254c-0.076,0.011-0.154,0.031-0.232,0.056c-0.045,0.012-0.096,0.034-0.147,0.039
		c-0.269,0.049-0.532,0.079-0.804,0.108l-0.575,0.076c-0.399,0.043-0.798,0.069-1.202,0.084l-1.111,0.008
		c-0.353-0.019-0.718-0.035-1.064-0.063l-1.057-0.108c-0.361-0.05-0.719-0.104-1.188-0.203l-0.654-0.158
		c-0.114-0.021-0.233-0.045-0.345-0.079c-0.299-0.078-0.584-0.181-0.928-0.3l-0.362-0.114c-0.537-0.207-1.043-0.445-1.513-0.701
		L9.254,37.332c-1.908-1.059-2.964-2.443-2.958-3.895l0.007-2.929c0.588,0.666,1.365,1.275,2.316,1.81l26.4,14.691
		c2.27,1.266,5.246,1.896,8.224,1.896s5.946-0.635,8.205-1.896c0.913-0.52,1.669-1.102,2.245-1.75l-0.006,2.92h-0.004L53.68,48.174z
		"/>
	<path fill="#C2E1BD" d="M18.919,14.083l-0.134,17.419l13.861,7.152l0.024-4.219l0.11-13.201L27.5,18.51L18.919,14.083z"/>
	<path fill="#FFFFFF" d="M46.729,13.211L32.922,6.084l-13.46,7.194l13.808,7.128l6.643-3.552L46.729,13.211z"/>
	<path fill="#C2E1BD" d="M33.635,38.637l13.498-7.213l0.131-17.404l-13.496,7.218L33.66,34.025L33.635,38.637z"/>
	<path fill="#38A940" d="M47.757,12.664L32.912,5l-14.977,8.008l-0.002,0.564l-0.138,18.5l15.35,7.918l0.488-0.264l14.49-7.744
		l0.137-18.497l0.006-0.564l-0.504-0.258H47.757z M47.264,14.017l-0.031,4.645l-0.5,0.269L33.73,25.878l0.039-4.649L47.264,14.017z
		 M33.635,38.637l0.025-4.611l0.002-0.35l0.105-0.057l13.398-7.162l-0.034,4.971l-13.5,7.209H33.635z M32.646,38.654l-13.859-7.152
		l0.134-17.419l13.858,7.152l-0.107,13.201L32.646,38.654L32.646,38.654z M19.462,13.278l1.323-0.705l13.749,7.163l-1.261,0.67
		L19.462,13.278z M46.729,13.211l-1.156,0.621L31.828,6.669l1.094-0.585l13.811,7.129L46.729,13.211z M33.768,26.397l-0.004,0.549
		l13.457-7.195l-0.045,5.604l-0.453,0.237L33.667,32.57l0.05-6.221l0.045,0.025l0.004,0.021L33.768,26.397z M30.904,7.165
		l13.746,7.164l-9.188,4.909L21.712,12.08L30.904,7.165z"/>
	<path fill="#38A940" d="M37.177,21.511c0.218-0.28,0.528-0.411,0.69-0.292c0.164,0.12,0.121,0.44-0.1,0.721
		c-0.217,0.279-0.524,0.41-0.689,0.291C36.913,22.11,36.959,21.789,37.177,21.511z"/>
	<path fill="#38A940" d="M35.203,22.612c0.218-0.282,0.525-0.411,0.689-0.294c0.166,0.117,0.119,0.44-0.098,0.723
		c-0.218,0.277-0.527,0.408-0.689,0.286c-0.168-0.117-0.123-0.439,0.096-0.715H35.203z"/>
	<path fill="#38A940" d="M39.447,21.031l5.929-3.301c0.271-0.153,0.493-0.489,0.493-0.756l0,0c0-0.262-0.223-0.35-0.493-0.201
		l-5.929,3.301c-0.271,0.153-0.494,0.489-0.494,0.752l0,0c0,0.261,0.22,0.354,0.494,0.203V21.031z"/>
</g>
</svg>
